# xmcd
#
# Track frame offsets: 
#        150
#        16140
#        41118
#        75268
#        104498
#        142748
#        166828
#        186816
#        209372
#        232806
#        250837
#
# Disc length: 3617 seconds
#
# Revision: 0
# Processed by: cddbd v1.5.2PL0 Copyright (c) Steve Scherf et al.
# Submitted via: ExactAudioCopy v1.0b4
#
DISCID=7e0e1f0b
DTITLE=Bruce Katz Band - Out From The Center
DYEAR=2016
DGENRE=Blues
TTITLE0=Don't Feel So Good Today
TTITLE1=Schnapps Man
TTITLE2=The Struggle Inside
TTITLE3=Blues From High Point Mountain
TTITLE4=Out From The Center
TTITLE5=All Torn Up
TTITLE6=Bessie's Bounce
TTITLE7=Dis-Funkshural
TTITLE8=Another Show
TTITLE9=Think Fast
TTITLE10=You Got It
EXTD=
EXTT0=
EXTT1=
EXTT2=
EXTT3=
EXTT4=
EXTT5=
EXTT6=
EXTT7=
EXTT8=
EXTT9=
EXTT10=
PLAYORDER=
